<svg version="1.0" xmlns="http://www.w3.org/2000/svg" width="50" height="50" viewBox="0 0 256 256"><path d="M94.8 5.6C74.4 10.5 59.6 27.1 57.1 48 54 73 72.2 111.6 92 122.4c6.8 3.7 16.5 4.6 23.6 2.2 19-6.3 38.6-38.8 40.1-66.6.7-11.6-.6-17.9-5.4-27.1C139.9 10.8 116.7.2 94.8 5.6zm29.5 10.2c12.3 6.1 21.1 17.8 23.9 31.6 2.9 15-5.9 42.4-18.8 58-14.1 17.1-29.5 18.1-43.6 2.7C73.5 94.7 64 71.3 64 54c0-15.1 9.5-30.7 22.9-37.5 7.7-3.9 10.5-4.5 20.7-4.2 9.1.2 10.7.6 16.7 3.5z"/><path d="M56 119.5c-25.8 5.2-43.7 22.7-51 50-3.4 12.4-3.9 35.7-1.1 54.5 1.1 8 2.6 16.2 3.1 18.2l1.1 3.8H104c83.4 0 96-.2 96-1.5 0-1.4 4.6-18.5 5.8-21.8.6-1.5 3 .7 12.5 12 14.4 17.1 18.5 19.5 27.1 15.9 7-2.9 10.8-10.5 8.6-17.2-.9-2.7-19.9-26.4-32.1-39.9-1.8-2-1.8-2.2.2-7.5 4.2-11 3.4-24.3-2.2-35.1-5.6-11.1-18.9-20.1-31.5-21.5-4.3-.4-8.9-1.8-12.7-3.6-6-3-17.5-6.2-25.8-7.2l-4.7-.5-7.7 18.7c-15 36.6-30.8 73.2-31.5 73.2-.8 0-12.9-27-30.3-67.5-6.3-14.6-10.9-24.1-11.7-24.2-.8-.1-4.4.5-8 1.2zm15 32c15.9 36.9 30 67.8 31.7 69.7.9 1 2.2 1.8 2.9 1.8 3.1 0 8.5-11.3 29.6-62 7.7-18.4 14.3-33.8 14.6-34.1.8-.7 12.6 1.5 16.9 3.2 2.6.9 2.5 1-3.3 4.5-8.4 5-13 9.9-17 17.9-10.2 20.6-1.6 45.4 19.5 55.8 6.1 3 7.3 3.2 16.6 3.2 5.5 0 11.2-.3 12.8-.8 2.3-.6 2.9-.4 3.9 1.8.9 2.1.6 4.6-1.8 14.3l-2.9 11.7-90.2.3c-85.2.2-90.2.1-90.7-1.5-4.3-14.5-5.6-50.8-2.2-63.8 6.1-23.8 21.7-40.5 42.6-45.9 3-.8 5.8-1.1 6.1-.7.3.3 5.2 11.4 10.9 24.6zm126.2-11.2c7.1 3.2 13.3 9.4 16.7 16.6 2.2 4.7 2.6 7 2.6 14.1 0 7.6-.4 9.3-3.1 14.9l-3.2 6.4 17.9 20.8c15 17.6 17.9 21.4 17.9 24.1 0 4.2-2.5 6.8-6.6 6.8-4 0-3 1-23.7-23.8-13.6-16.3-16.4-19.2-18.2-18.7-1.1.4-4.7 1.3-8 2.1-20 4.6-39.8-11.3-39.9-32.1-.1-9.6 2.4-16.3 8.5-22.9 4.8-5.3 10.9-9.1 17.3-10.7 5.7-1.5 15.9-.4 21.8 2.4z"/><path d="M172.5 144.9c-5.4 2.4-12 10.1-13.9 15.9-3.5 11.2-2.5 17.1 2.7 15.8 2.2-.5 2.7-1.2 2.7-3.9 0-8.8 6.6-20 12.4-21.2 1.2-.2 3.3-.6 4.8-.9 1.5-.4 3-1.5 3.3-2.7 1.6-4.8-4.7-6.4-12-3z"/></svg>